<svg width="16" height="16" viewBox="0 0 16 16" fill="none" xmlns="http://www.w3.org/2000/svg">
<g id="Sparkle">
<g id="Group 7">
<path id="Vector" d="M12.591 4.19121C12.56 4.12631 12.4833 4.09372 12.4218 4.0775C12.0676 4.0775 9.02298 3.94769 9.02298 0.211063C9.02298 0.0974854 8.93082 0 8.8228 0C8.71553 0 8.62324 0.0974854 8.62324 0.211063C8.62324 3.94769 5.57822 4.0775 5.2398 4.0775C5.19372 4.0775 5.14752 4.09372 5.1168 4.12631C5.08595 4.14253 5.07047 4.17485 5.05536 4.19121C5.02452 4.25624 5.02452 4.33737 5.05536 4.4024C5.08608 4.46757 5.16288 4.51612 5.2398 4.51612C5.2398 4.51612 5.2398 4.51612 5.25516 4.51612C5.60894 4.51612 8.6386 4.64618 8.6386 8.38242C8.6386 8.49599 8.73076 8.59361 8.83866 8.59361C8.9463 8.59361 9.03834 8.49599 9.03834 8.38242C9.03834 4.66228 12.0679 4.51612 12.4219 4.51612C12.4987 4.51612 12.5601 4.46757 12.6065 4.4024C12.6369 4.33737 12.6369 4.25638 12.591 4.19121Z" fill="black"/>
<path id="Vector_2" d="M14.0867 12.358C13.8424 12.358 11.6443 12.272 11.6443 9.56289C11.6443 9.41222 11.5221 9.2832 11.3798 9.2832C11.2374 9.2832 11.1152 9.41205 11.1152 9.56289C11.1152 12.272 8.91708 12.358 8.67281 12.358C8.65248 12.358 8.65248 12.358 8.65248 12.358C8.51001 12.3795 8.4082 12.4867 8.4082 12.6374C8.4082 12.788 8.53034 12.9171 8.67281 12.9171C8.93741 12.9171 11.1152 13.0028 11.1152 15.7119C11.1152 15.8622 11.2374 15.9915 11.3798 15.9915C11.502 16.0345 11.6241 15.9056 11.6241 15.7335C11.6241 13.0243 13.8222 12.9384 14.0665 12.9384H14.0868C14.2293 12.9384 14.3514 12.8095 14.3514 12.6374C14.3513 12.4867 14.2291 12.358 14.0867 12.358Z" fill="black"/>
<path id="Vector_3" d="M7.4991 10.7176C7.62468 10.7176 7.7322 10.6041 7.7322 10.4527C7.7322 10.3202 7.62468 10.2067 7.4991 10.2067C7.28434 10.2067 5.34898 10.131 5.34898 7.74608C5.34898 7.61359 5.24145 7.5 5.11603 7.5C4.9906 7.5 4.88322 7.61359 4.88322 7.74608C4.88322 10.1311 2.94786 10.2067 2.73295 10.2067C2.71491 10.2067 2.71491 10.2067 2.71491 10.2067C2.58948 10.2256 2.5 10.3202 2.5 10.4527C2.5 10.5852 2.60753 10.6987 2.73295 10.6987C2.96591 10.6987 4.88322 10.7744 4.88322 13.1594C4.88322 13.2919 4.9906 13.4055 5.11603 13.4055C5.22356 13.4245 5.33108 13.311 5.33108 13.1783C5.33108 10.7933 7.26615 10.7176 7.48135 10.7176H7.4991Z" fill="black"/>
</g>
</g>
</svg>
