<svg width="32" height="32" viewBox="0 0 32 32" fill="none" xmlns="http://www.w3.org/2000/svg">
<path d="M25.1815 8.38242C25.1195 8.25261 24.9662 8.18744 24.8431 8.15499C24.1348 8.15499 18.0455 7.89539 18.0455 0.422126C18.0455 0.194971 17.8611 0 17.6451 0C17.4306 0 17.246 0.194971 17.246 0.422126C17.246 7.89539 11.156 8.15499 10.4791 8.15499C10.387 8.15499 10.2946 8.18744 10.2331 8.25261C10.1714 8.28506 10.1404 8.3497 10.1102 8.38242C10.0485 8.51249 10.0485 8.67474 10.1102 8.80481C10.1717 8.93514 10.3253 9.03223 10.4791 9.03223C10.4791 9.03223 10.4791 9.03223 10.5098 9.03223C11.2174 9.03223 17.2767 9.29237 17.2767 16.7648C17.2767 16.992 17.461 17.1872 17.6768 17.1872C17.8921 17.1872 18.0762 16.992 18.0762 16.7648C18.0762 9.32455 24.1353 9.03223 24.8433 9.03223C24.9969 9.03223 25.1198 8.93514 25.2125 8.80481C25.2734 8.67474 25.2734 8.51275 25.1815 8.38242Z" fill="black"/>
<path d="M28.1723 24.7163C27.6838 24.7163 23.2875 24.5442 23.2875 19.126C23.2875 18.8247 23.0433 18.5667 22.7587 18.5667C22.4737 18.5667 22.2295 18.8243 22.2295 19.126C22.2295 24.5442 17.8332 24.7163 17.3446 24.7163C17.304 24.7163 17.304 24.7163 17.304 24.7163C17.019 24.7593 16.8154 24.9736 16.8154 25.275C16.8154 25.5763 17.0597 25.8344 17.3446 25.8344C17.8738 25.8344 22.2295 26.0058 22.2295 31.4239C22.2295 31.7246 22.4737 31.9833 22.7587 31.9833C23.0029 32.0692 23.2472 31.8115 23.2472 31.4672C23.2472 26.0488 27.6435 25.877 28.132 25.877H28.1727C28.4576 25.877 28.7019 25.6193 28.7019 25.275C28.7016 24.9736 28.4573 24.7163 28.1723 24.7163Z" fill="black"/>
<path d="M14.9982 21.4353C15.2494 21.4353 15.4644 21.2081 15.4644 20.9053C15.4644 20.6403 15.2494 20.4135 14.9982 20.4135C14.5687 20.4135 10.698 20.2619 10.698 15.4922C10.698 15.2272 10.4829 15 10.2321 15C9.98121 15 9.76644 15.2272 9.76644 15.4922C9.76644 20.2622 5.89573 20.4135 5.46591 20.4135C5.42982 20.4135 5.42982 20.4135 5.42982 20.4135C5.17897 20.4513 5 20.6403 5 20.9053C5 21.1703 5.21506 21.3975 5.46591 21.3975C5.93181 21.3975 9.76644 21.5487 9.76644 26.3188C9.76644 26.5838 9.98121 26.811 10.2321 26.811C10.4471 26.8491 10.6622 26.6219 10.6622 26.3566C10.6622 21.5865 14.5323 21.4353 14.9627 21.4353H14.9982Z" fill="black"/>
</svg>
